<svg xmlns="http://www.w3.org/2000/svg" viewBox="0 0 64 64" role="img" aria-labelledby="title">
  <title>use-shortcut favicon</title>
  <rect width="64" height="64" rx="14" fill="#080808" />
  <rect x="10" y="10" width="44" height="44" rx="10" fill="#141414" stroke="#2b2b2b" />
  <rect x="16" y="16" width="32" height="32" rx="8" fill="#ff6b1a" />
  <path
    d="M24 25h8c4.4 0 7 2.5 7 6.2c0 2.6-1.3 4.5-3.7 5.5L40 41h-7.1l-3.6-3.7H30c-1.1 0-2-.9-2-2v-4.8h3.8c1.8 0 2.7-.7 2.7-2.1c0-1.3-.9-2-2.7-2H24V25Z"
    fill="#080808"
  />
  <path d="M24 39.5h4v4h-4z" fill="#080808" />
</svg>
